<svg width="756" height="489" viewBox="0 0 756 489" fill="none" xmlns="http://www.w3.org/2000/svg">
<path d="M182.251 199.945H221.45C225.691 199.945 229.156 196.414 229.156 192.061C229.156 187.722 225.705 184.177 221.45 184.177H218.317V183.709C218.317 176.719 212.759 171.033 205.925 171.033C199.092 171.033 193.534 176.719 193.534 183.709V184.177H182.251C178.01 184.177 174.544 187.708 174.544 192.061C174.544 196.414 178.01 199.945 182.251 199.945ZM221.45 186.503C224.444 186.503 226.883 188.998 226.883 192.061C226.883 195.124 224.444 197.619 221.45 197.619H182.251C179.257 197.619 176.818 195.124 176.818 192.061C176.818 188.998 179.257 186.503 182.251 186.503H194.656C195.28 186.503 195.793 185.978 195.793 185.34V183.723C195.793 178.009 200.339 173.358 205.925 173.358C211.511 173.358 216.058 178.009 216.058 183.723V185.34C216.058 185.978 216.571 186.503 217.194 186.503H221.45Z" fill="#002868"/>
<path d="M304.418 132.836C294.27 132.836 286 124.582 286 114.418C286 104.27 294.254 96.0002 304.418 96.0002C314.581 96.0002 322.835 104.254 322.835 114.418C322.819 124.582 314.565 132.836 304.418 132.836ZM304.418 98.1366C295.435 98.1366 288.12 105.452 288.12 114.434C288.12 123.416 295.435 130.732 304.418 130.732C313.4 130.732 320.715 123.416 320.715 114.434C320.699 105.436 313.4 98.1366 304.418 98.1366Z" fill="#002868"/>
<path d="M304.839 132.835C298.527 132.835 293.591 124.743 293.591 114.418C293.591 104.092 298.527 96 304.839 96C311.151 96 316.087 104.092 316.087 114.418C316.087 124.743 311.151 132.835 304.839 132.835ZM304.839 98.1363C299.886 98.1363 295.711 105.597 295.711 114.434C295.711 123.271 299.886 130.731 304.839 130.731C309.791 130.731 313.967 123.271 313.967 114.434C313.967 105.597 309.791 98.1363 304.839 98.1363Z" fill="#002868"/>
<path d="M304.839 139.276C304.256 139.276 303.787 138.807 303.787 138.224V97.0676C303.787 96.485 304.256 96.0156 304.839 96.0156C305.422 96.0156 305.891 96.485 305.891 97.0676V138.208C305.907 138.791 305.438 139.276 304.839 139.276Z" fill="#002868"/>
<path d="M318.903 106.438H289.593C289.01 106.438 288.541 105.969 288.541 105.386C288.541 104.804 289.01 104.334 289.593 104.334H318.903C319.485 104.334 319.955 104.804 319.955 105.386C319.955 105.969 319.485 106.438 318.903 106.438Z" fill="#002868"/>
<path d="M321.654 113.527H287.165C286.583 113.527 286.113 113.057 286.113 112.475C286.113 111.892 286.583 111.423 287.165 111.423H321.654C322.237 111.423 322.706 111.892 322.706 112.475C322.706 113.057 322.237 113.527 321.654 113.527Z" fill="#002868"/>
<path d="M288.007 120.826C287.424 120.826 286.955 120.357 286.955 119.774C286.955 119.192 287.424 118.706 288.007 118.706L320.505 118.496C321.088 118.496 321.557 118.965 321.557 119.548C321.557 120.13 321.088 120.616 320.505 120.616L288.007 120.826Z" fill="#002868"/>
<path d="M317.527 126.831H291.276C290.693 126.831 290.224 126.362 290.224 125.779C290.224 125.197 290.693 124.727 291.276 124.727H317.527C318.109 124.727 318.579 125.197 318.579 125.779C318.595 126.362 318.125 126.831 317.527 126.831Z" fill="#002868"/>
<path d="M300.89 140.28C300.534 140.28 300.194 140.102 300 139.794L292.846 128.676C292.523 128.19 292.668 127.527 293.17 127.219C293.655 126.896 294.319 127.041 294.626 127.543L301.78 138.662C302.104 139.147 301.958 139.811 301.456 140.118C301.278 140.215 301.084 140.28 300.89 140.28Z" fill="#002868"/>
<path d="M309.743 140.28C309.581 140.28 309.419 140.248 309.274 140.167C308.756 139.908 308.545 139.277 308.804 138.743L314.517 127.3C314.776 126.782 315.407 126.572 315.941 126.831C316.459 127.09 316.67 127.721 316.411 128.255L310.698 139.698C310.52 140.054 310.131 140.28 309.743 140.28Z" fill="#002868"/>
<path d="M309.742 147.288H300.436C299.853 147.288 299.384 146.818 299.384 146.236V138.532C299.384 137.949 299.853 137.48 300.436 137.48H309.742C310.324 137.48 310.794 137.949 310.794 138.532V146.219C310.81 146.802 310.341 147.288 309.742 147.288ZM301.488 145.168H308.69V139.584H301.488V145.168Z" fill="#002868"/>
<path d="M554.72 147.475H603.91C609.233 147.475 613.581 143.29 613.581 138.131C613.581 132.988 609.25 128.787 603.91 128.787H599.979V128.232C599.979 119.947 593.004 113.208 584.429 113.208C575.853 113.208 568.878 119.947 568.878 128.232V128.787H554.72C549.397 128.787 545.048 132.971 545.048 138.131C545.048 143.273 549.397 147.475 554.72 147.475ZM603.91 131.543C607.667 131.543 610.728 134.501 610.728 138.131C610.728 141.761 607.667 144.718 603.91 144.718H554.72C550.962 144.718 547.901 141.761 547.901 138.131C547.901 134.501 550.962 131.543 554.72 131.543H570.287C571.07 131.543 571.714 130.921 571.714 130.165V128.249C571.714 121.477 577.419 115.964 584.429 115.964C591.438 115.964 597.144 121.477 597.144 128.249V130.165C597.144 130.921 597.787 131.543 598.57 131.543H603.91Z" fill="#002868"/>
<path d="M299.219 47.5496H243.88C237.892 47.5496 233 42.842 233 37.0378C233 31.2525 237.873 26.526 243.88 26.526H248.302V25.9021C248.302 16.5814 256.149 9 265.797 9C275.444 9 283.291 16.5814 283.291 25.9021V26.526H299.219C305.207 26.526 310.099 31.2336 310.099 37.0378C310.099 42.8231 305.207 47.5496 299.219 47.5496ZM243.88 29.6266C239.653 29.6266 236.209 32.9541 236.209 37.0378C236.209 41.1215 239.653 44.449 243.88 44.449H299.219C303.446 44.449 306.89 41.1215 306.89 37.0378C306.89 32.9541 303.446 29.6266 299.219 29.6266H281.706C280.825 29.6266 280.101 28.927 280.101 28.0763V25.921C280.101 18.3018 273.683 12.1006 265.797 12.1006C257.91 12.1006 251.492 18.3018 251.492 25.921V28.0763C251.492 28.927 250.768 29.6266 249.887 29.6266H243.88Z" fill="#002868"/>
<path d="M622.67 441.625V425.104C622.67 421.564 623.786 418.128 625.852 415.26C626.685 414.11 627.131 412.706 627.131 411.272L627.072 397.395L628.573 386.267L624.707 368.013L623.488 366.758C621.734 364.966 620.663 362.621 620.425 360.126L619.682 351.896C619.221 346.862 616.41 342.351 612.098 339.752L609.734 338.318L609.125 327.488L603.549 320.975C600.946 317.943 597.616 315.628 593.869 314.238L590.345 312.939C590.345 312.939 598.344 307.995 607.281 314.791L605.437 318.809L613.139 325.621L616.381 326.412C620.574 327.428 624.648 328.862 628.544 330.699L637.45 334.897L634.729 344.307C633.272 349.341 630.923 354.062 627.8 358.259C625.585 361.217 625.139 365.16 626.611 368.551L627.696 371.031C628.975 373.958 629.927 377.006 630.536 380.127L635.621 406.044V441.61H622.67V441.625Z" fill="#04F7F7"/>
<path d="M621.139 317.276H611.741V321.757H621.139V317.276Z" fill="#04F7F7"/>
<path d="M652.067 442.707H597.259C596.575 442.707 596.025 442.155 596.025 441.467V358.58L589.81 356.04C577.692 351.096 566.614 343.358 557.752 333.679L557.202 333.081L518.289 301.802C517.992 301.563 517.828 301.22 517.828 300.831C517.828 300.458 517.992 300.099 518.289 299.86C527.612 292.362 539.953 290.106 551.314 293.811L580.636 303.371L584.427 290.211C587.49 279.575 586.464 268.268 581.543 258.364L563.938 223.037C563.655 222.47 563.848 221.782 564.384 221.439L573.409 215.658C573.692 215.479 574.034 215.419 574.361 215.494C574.688 215.568 574.97 215.778 575.134 216.076L606.746 270.643L608.619 270.434L612.649 208.787C612.679 208.249 613.065 207.786 613.586 207.666L623.845 205.187C624.202 205.097 624.574 205.172 624.871 205.396C625.169 205.62 625.347 205.964 625.362 206.337L628.187 270.927L630.953 271.434L663.754 223.022C664.096 222.514 664.751 222.335 665.301 222.604L674.743 227.145C675.04 227.294 675.263 227.548 675.382 227.862C675.486 228.176 675.471 228.519 675.323 228.818L651.562 276.991L656.409 280.89L707.485 262.965C708.094 262.756 708.763 263.04 709.016 263.637L713.12 273.122C713.388 273.735 713.12 274.452 712.51 274.736L665.152 296.694L664.81 302.773C663.977 317.502 661.331 332.11 656.944 346.196L653.301 357.922V441.453C653.301 442.155 652.751 442.707 652.067 442.707ZM598.494 440.228H650.833V357.743C650.833 357.624 650.848 357.489 650.893 357.37L654.595 345.464C658.922 331.573 661.524 317.158 662.357 302.639L662.743 295.812C662.773 295.349 663.041 294.946 663.457 294.767L710.399 273.003L707.232 265.684L656.587 283.444C656.186 283.579 655.74 283.504 655.413 283.235L649.257 278.291C648.811 277.932 648.662 277.29 648.93 276.782L672.602 228.833L665.241 225.293L632.559 273.496C632.291 273.899 631.801 274.108 631.325 274.019L626.804 273.197C626.239 273.093 625.823 272.615 625.793 272.032L622.983 207.95L615.058 209.862L611.013 271.644C610.969 272.241 610.508 272.719 609.913 272.794L606.225 273.212C605.75 273.272 605.274 273.033 605.021 272.6L573.647 218.436L566.629 222.918L583.728 257.274C588.933 267.73 590.018 279.68 586.777 290.913L582.628 305.298C582.539 305.626 582.316 305.895 582.018 306.045C581.721 306.209 581.379 306.239 581.067 306.134L550.54 296.171C540.474 292.885 529.56 294.647 521.055 300.861L558.822 331.214C558.867 331.259 558.912 331.304 558.956 331.349L559.566 332.021C568.175 341.431 578.955 348.945 590.732 353.755L597.705 356.608C598.166 356.802 598.479 357.25 598.479 357.758V440.228H598.494Z" fill="#002868"/>
<path d="M638.833 442.392H625.897C625.213 442.392 624.663 441.84 624.663 441.153V424.632C624.663 420.808 625.838 417.148 628.083 414.056C628.767 413.1 629.124 411.98 629.124 410.8L629.064 396.923C629.064 396.863 629.064 396.803 629.079 396.743L630.551 385.824L626.804 368.138L625.823 367.137C623.875 365.151 622.671 362.522 622.418 359.743L621.674 351.513C621.258 346.897 618.641 342.7 614.686 340.31L612.322 338.876C611.98 338.667 611.742 338.293 611.727 337.89L611.147 327.479L605.839 321.294C603.385 318.426 600.218 316.216 596.679 314.916L593.155 313.617C592.709 313.452 592.397 313.049 592.352 312.586C592.308 312.108 592.531 311.66 592.932 311.406C593.289 311.182 601.765 306.103 611.251 313.333C611.712 313.691 611.861 314.304 611.623 314.841L610.166 318.023L616.946 324.013L619.905 324.73C624.158 325.761 628.336 327.24 632.306 329.107L641.212 333.304C641.763 333.558 642.045 334.185 641.867 334.768L639.146 344.179C637.644 349.377 635.235 354.202 632.008 358.519C630.061 361.118 629.659 364.583 630.968 367.571L632.053 370.05C633.362 373.053 634.343 376.204 634.967 379.416L640.053 405.332C640.068 405.407 640.082 405.497 640.082 405.571V441.138C640.068 441.84 639.517 442.392 638.833 442.392ZM627.131 439.928H637.599V405.721L632.544 379.924C631.994 377.131 631.161 374.367 630.061 371.738L632.99 385.54C633.02 385.675 633.02 385.824 633.005 385.959L631.518 397.012L631.577 410.815C631.592 412.517 631.057 414.146 630.061 415.535C628.128 418.209 627.116 421.36 627.116 424.647V439.928H627.131ZM614.151 337.128L615.95 338.219C620.574 341.012 623.637 345.911 624.128 351.319L624.871 359.549C625.065 361.76 626.031 363.851 627.577 365.435L627.89 365.748C627.429 362.716 628.172 359.579 630.046 357.07C633.094 352.977 635.369 348.421 636.781 343.521L639.205 335.112L631.25 331.362C627.429 329.57 623.414 328.151 619.325 327.15L616.084 326.358C615.89 326.313 615.712 326.224 615.563 326.089L607.861 319.278C607.445 318.919 607.326 318.322 607.563 317.829L608.991 314.737C604.203 311.466 599.787 311.719 597.051 312.436L597.542 312.616C601.467 314.065 604.991 316.514 607.727 319.696L613.303 326.209C613.481 326.418 613.586 326.672 613.6 326.941L614.151 337.128Z" fill="#002868"/>
<path d="M624.366 319.756H614.969C614.285 319.756 613.734 319.203 613.734 318.516V314.034C613.734 313.347 614.285 312.795 614.969 312.795H624.366C625.05 312.795 625.6 313.347 625.6 314.034V318.516C625.585 319.203 625.035 319.756 624.366 319.756ZM616.203 317.276H623.132V315.259H616.203V317.276Z" fill="#002868"/>
<path d="M430.181 483.511L398.071 418.414L353.607 304.053V292.825L368.924 206.804L358.685 212.842L350.727 249.265C350.727 249.265 345.189 247.484 338.331 247.484C331.472 247.484 325.934 249.265 325.934 249.265L314.15 209.405L300.516 199.945L324.933 289.389V300.046L274.333 451.832L261.199 475.038V483.497H310.811V479.782L303.16 468.179C303.16 468.179 317.114 460.374 345.273 460.374C373.042 460.374 387.345 468.318 387.345 468.318L377.87 483.483H430.181V483.511ZM338.136 255.748C344.16 255.748 349.043 257.71 349.043 257.71L341.266 289.138H335.367L327.214 257.71C327.228 257.71 332.112 255.748 338.136 255.748ZM335.645 307.795H341.92L385.285 427.513H302.965L335.645 307.795ZM343.061 445.224C319.103 445.224 299.695 452.124 299.695 452.124L300.892 441.091C300.892 441.091 319.771 434.386 343.061 434.386C366.35 434.386 385.23 441.091 385.23 441.091L386.426 452.124C386.426 452.124 367.018 445.224 343.061 445.224Z" fill="#04F7F7"/>
<path d="M426.425 488.061H374.114C373.78 488.061 373.474 487.88 373.321 487.588C373.154 487.295 373.168 486.948 373.349 486.669L382.308 472.409C378.83 470.781 364.973 465.063 341.558 465.063C317.907 465.063 304.273 470.67 300.808 472.312L307.946 483.052C308.043 483.205 308.099 483.372 308.099 483.553V487.142C308.099 487.643 307.695 488.047 307.194 488.047H257.582C257.081 488.047 256.678 487.643 256.678 487.142V478.795C256.678 478.642 256.719 478.489 256.789 478.35L269.881 455.227L279.536 426.247C279.689 425.774 280.204 425.51 280.691 425.677C281.164 425.83 281.428 426.344 281.261 426.831L271.578 455.895C271.564 455.95 271.536 456.006 271.509 456.062L258.5 479.059V486.266H306.29V483.859L298.735 472.479C298.596 472.27 298.555 472.005 298.61 471.755C298.666 471.505 298.833 471.296 299.055 471.171C299.64 470.851 313.511 463.254 341.586 463.254C369.272 463.254 383.491 470.92 384.089 471.254C384.312 471.379 384.465 471.574 384.534 471.825C384.604 472.061 384.562 472.325 384.423 472.534L375.811 486.252H425.006L393.605 422.518C393.591 422.491 393.577 422.477 393.577 422.449L349.169 308.143C349.127 308.032 349.113 307.921 349.113 307.809V296.582C349.113 296.526 349.113 296.47 349.127 296.429L363.985 212.327L355.763 217.169L347.889 253.202C347.833 253.453 347.68 253.675 347.457 253.801C347.235 253.926 346.97 253.954 346.72 253.884C346.664 253.87 341.211 252.145 334.602 252.145C327.98 252.145 322.526 253.87 322.47 253.884C322.234 253.954 321.983 253.94 321.761 253.828C321.538 253.717 321.385 253.522 321.316 253.286L309.615 213.746L298.36 205.9L322.164 292.923C322.192 293.006 322.192 293.076 322.192 293.159V303.816C322.192 303.914 322.178 304.011 322.15 304.108L286.979 409.621C286.826 410.095 286.312 410.359 285.825 410.192C285.352 410.039 285.087 409.524 285.254 409.037L320.383 303.663V293.285L295.939 203.938C295.842 203.562 295.981 203.173 296.287 202.95C296.607 202.728 297.024 202.728 297.33 202.95L310.909 212.411C311.076 212.522 311.201 212.703 311.257 212.898L322.79 251.881C324.655 251.38 329.19 250.309 334.574 250.309C339.889 250.309 344.396 251.338 346.289 251.853L354.052 216.376C354.107 216.125 354.261 215.917 354.483 215.791L364.751 209.753C365.057 209.573 365.446 209.586 365.738 209.795C366.031 210.004 366.184 210.352 366.114 210.699L350.88 296.651V307.628L395.219 421.739L427.246 486.753C427.385 487.031 427.371 487.365 427.204 487.629C427.037 487.894 426.745 488.061 426.425 488.061ZM295.939 456.785C295.911 456.785 295.869 456.785 295.842 456.785C295.341 456.729 294.979 456.284 295.035 455.783L296.231 444.751C296.273 444.403 296.496 444.111 296.829 443.986C297.024 443.916 316.126 437.224 339.305 437.224C362.483 437.224 381.585 443.916 381.78 443.986C382.114 444.097 382.336 444.403 382.378 444.751L382.573 446.545C382.628 447.046 382.267 447.492 381.766 447.547C381.265 447.603 380.82 447.241 380.764 446.74L380.639 445.53C377.397 444.459 360.006 439.06 339.305 439.06C318.603 439.06 301.212 444.459 297.97 445.53L296.843 455.978C296.788 456.437 296.398 456.785 295.939 456.785ZM381.543 432.076H299.445C298.944 432.076 298.541 431.673 298.541 431.172C298.541 430.671 298.944 430.268 299.445 430.268H380.249L337.524 312.359H332.585L305.26 412.891C305.135 413.378 304.62 413.656 304.147 413.531C303.66 413.406 303.382 412.905 303.507 412.418L331.013 311.218C331.124 310.828 331.486 310.55 331.889 310.55H338.164C338.553 310.55 338.887 310.787 339.026 311.148L382.392 430.866C382.489 431.144 382.447 431.45 382.28 431.701C382.113 431.923 381.835 432.076 381.543 432.076ZM337.524 293.688H331.625C331.207 293.688 330.846 293.41 330.748 293.006L322.595 261.633C322.484 261.188 322.721 260.729 323.152 260.562C323.361 260.479 328.272 258.587 334.393 258.587C340.515 258.587 345.426 260.479 345.635 260.562C346.066 260.729 346.303 261.188 346.191 261.633L338.414 293.006C338.303 293.41 337.941 293.688 337.524 293.688ZM332.334 291.865H336.814L344.216 261.995C342.644 261.48 338.818 260.409 334.379 260.409C329.955 260.409 326.129 261.48 324.557 261.995L332.334 291.865Z" fill="#002868"/>
<path d="M295.619 456.645C295.355 456.645 295.118 456.604 294.937 456.409C294.756 456.214 294.673 455.978 294.715 455.713L295.536 449.453C295.591 449.007 295.967 448.674 296.412 448.674L755.068 437.307C755.304 437.293 755.555 437.39 755.722 437.571C755.903 437.738 756 437.975 756 438.225V444.5C756 445.001 755.61 445.335 755.11 445.348L295.633 456.659C295.633 456.645 295.633 456.645 295.619 456.645ZM297.247 450.496L296.662 454.948L754.191 443.623V439.171L297.247 450.496Z" fill="#002868"/>
<path d="M354.121 432.076L299.208 431.922C299.083 431.922 298.958 431.922 298.847 431.867C298.541 431.742 267.557 418.747 156.173 413.127C44.4971 407.492 10.5504 406.671 10.2165 406.671C9.95213 406.671 9.68779 406.546 9.52084 406.323L0.199415 394.525C-0.0231865 394.247 -0.0649243 393.872 0.102027 393.552C0.255065 393.232 0.588967 393.037 0.936781 393.051C1.35416 393.065 44.5666 394.261 156.271 399.896C268.072 405.544 356.125 429.738 357.001 429.989C357.419 430.1 357.697 430.489 357.669 430.921C357.641 431.352 357.321 431.7 356.89 431.769L354.247 432.103C354.205 432.103 354.163 432.076 354.121 432.076ZM299.389 430.142L351.102 430.323C330.317 425.036 251.989 406.56 156.173 401.718C57.5749 396.738 12.359 395.221 2.82889 394.929L10.6756 404.849C14.9189 404.96 51.2168 406.003 156.257 411.304C263.69 416.744 296.676 429.056 299.389 430.142Z" fill="#002868"/>
<path d="M356.792 431.77C356.708 431.77 356.625 431.756 356.541 431.743C355.665 431.506 267.765 407.354 156.186 401.719C44.5241 396.085 1.31169 394.888 0.894311 394.874C0.393458 394.86 0.00390625 394.457 0.00390625 393.956L0.0178188 388.252C0.0178188 388.001 0.115207 387.765 0.29607 387.598C0.476934 387.431 0.699535 387.334 0.949961 387.348C1.36734 387.361 44.5798 388.558 156.298 394.192C268.085 399.841 380.193 429.67 381.32 429.976C381.765 430.101 382.043 430.518 381.988 430.977C381.932 431.436 381.542 431.77 381.083 431.77H356.792ZM1.82645 393.08C8.50449 393.274 53.2752 394.693 156.284 399.897C266.165 405.448 353.147 428.918 356.917 429.948H373.863C347.665 423.395 251.808 400.843 156.2 396.015C53.4421 390.826 8.65753 389.393 1.84037 389.198L1.82645 393.08Z" fill="#002868"/>
<path d="M320.05 246.413C319.744 246.413 319.438 246.246 319.271 245.967C319.02 245.536 319.159 244.98 319.591 244.715L351.937 225.627C352.369 225.377 352.925 225.516 353.19 225.947C353.44 226.378 353.301 226.935 352.87 227.199L320.523 246.287C320.356 246.371 320.203 246.413 320.05 246.413Z" fill="#002868"/>
<path d="M69.3867 394.304C69.0806 394.304 68.7745 394.137 68.6076 393.859C68.3572 393.427 68.4963 392.871 68.9276 392.606L309.295 250.782C309.726 250.531 310.283 250.67 310.547 251.102C310.798 251.533 310.659 252.089 310.227 252.354L69.8597 394.179C69.7067 394.262 69.5536 394.304 69.3867 394.304Z" fill="#002868"/>
<path d="M321.677 251.81C321.371 251.81 321.079 251.657 320.912 251.393C320.648 250.962 320.773 250.405 321.19 250.141L350.741 231.387C351.158 231.122 351.728 231.248 351.993 231.665C352.257 232.096 352.132 232.653 351.714 232.917L322.164 251.671C322.011 251.755 321.844 251.81 321.677 251.81Z" fill="#002868"/>
<path d="M96.2104 394.874C95.9044 394.874 95.6122 394.721 95.4452 394.456C95.1809 394.025 95.3061 393.469 95.7235 393.204L311.021 256.583C311.452 256.318 312.008 256.444 312.273 256.861C312.537 257.292 312.412 257.849 311.994 258.113L96.6974 394.735C96.5443 394.832 96.3774 394.874 96.2104 394.874Z" fill="#002868"/>
<path d="M331.75 252.215C331.457 252.215 331.179 252.075 330.998 251.825C330.72 251.408 330.817 250.837 331.235 250.559L349.586 237.94C350.003 237.662 350.573 237.759 350.852 238.177C351.13 238.594 351.032 239.165 350.615 239.443L332.264 252.062C332.111 252.159 331.93 252.215 331.75 252.215Z" fill="#002868"/>
<path d="M121.893 396.585C121.601 396.585 121.323 396.446 121.142 396.196C120.864 395.778 120.961 395.208 121.378 394.93L312.982 263.108C313.4 262.83 313.97 262.927 314.248 263.344C314.527 263.762 314.429 264.332 314.012 264.611L122.408 396.432C122.255 396.53 122.074 396.585 121.893 396.585Z" fill="#002868"/>
<path d="M341.03 252.604C340.752 252.604 340.474 252.479 340.293 252.228C340.001 251.825 340.084 251.254 340.502 250.962L347.708 245.773C348.112 245.481 348.682 245.564 348.975 245.982C349.267 246.385 349.183 246.955 348.766 247.248L341.559 252.437C341.406 252.548 341.211 252.604 341.03 252.604Z" fill="#002868"/>
<path d="M324.112 264.805C323.834 264.805 323.556 264.68 323.375 264.429C323.083 264.026 323.166 263.456 323.584 263.163L329.149 259.157C329.552 258.864 330.123 258.948 330.415 259.365C330.707 259.769 330.624 260.339 330.206 260.631L324.641 264.638C324.474 264.749 324.293 264.805 324.112 264.805Z" fill="#002868"/>
<path d="M141.301 396.585C141.023 396.585 140.744 396.46 140.564 396.209C140.271 395.806 140.355 395.235 140.772 394.943L314.457 269.744C314.86 269.452 315.431 269.535 315.723 269.953C316.015 270.356 315.932 270.927 315.514 271.219L141.83 396.418C141.663 396.529 141.482 396.585 141.301 396.585Z" fill="#002868"/>
<path d="M325.782 271.219C325.517 271.219 325.253 271.094 325.072 270.871C324.766 270.481 324.822 269.897 325.225 269.591L338.303 259.268C338.693 258.962 339.263 259.017 339.583 259.421C339.889 259.81 339.834 260.395 339.43 260.701L326.352 271.024C326.171 271.149 325.977 271.219 325.782 271.219Z" fill="#002868"/>
<path d="M164.118 398.867C163.853 398.867 163.589 398.742 163.408 398.519C163.102 398.13 163.158 397.546 163.561 397.239L316.391 276.562C316.78 276.256 317.351 276.311 317.671 276.715C317.977 277.104 317.921 277.689 317.518 277.995L164.688 398.672C164.521 398.798 164.313 398.867 164.118 398.867Z" fill="#002868"/>
<path d="M327.423 276.269C327.172 276.269 326.922 276.158 326.741 275.963C326.407 275.588 326.449 275.003 326.825 274.683L342.977 260.618C343.353 260.284 343.937 260.326 344.257 260.701C344.591 261.077 344.549 261.661 344.174 261.981L328.021 276.047C327.854 276.2 327.631 276.269 327.423 276.269Z" fill="#002868"/>
<path d="M185.237 400.007C184.987 400.007 184.736 399.896 184.556 399.701C184.222 399.325 184.263 398.741 184.639 398.421L317.991 282.376C318.367 282.042 318.951 282.084 319.271 282.46C319.605 282.835 319.563 283.42 319.187 283.74L185.835 399.785C185.655 399.938 185.446 400.007 185.237 400.007Z" fill="#002868"/>
<path d="M328.634 282.613C328.397 282.613 328.175 282.53 327.994 282.349C327.632 281.987 327.632 281.417 327.994 281.055L342.964 266.057C343.312 265.695 343.896 265.695 344.258 266.057C344.619 266.419 344.619 266.989 344.258 267.351L329.288 282.349C329.093 282.53 328.857 282.613 328.634 282.613Z" fill="#002868"/>
<path d="M209.486 402.011C209.25 402.011 209.027 401.927 208.846 401.746C208.485 401.385 208.485 400.814 208.846 400.453L319.716 289.347C320.064 288.985 320.648 288.985 321.01 289.347C321.371 289.708 321.371 290.279 321.01 290.641L210.14 401.746C209.959 401.913 209.723 402.011 209.486 402.011Z" fill="#002868"/>
<path d="M330.359 288.93C330.151 288.93 329.942 288.86 329.775 288.707C329.385 288.387 329.344 287.803 329.664 287.427L340.919 274.155C341.239 273.765 341.823 273.723 342.199 274.043C342.589 274.363 342.63 274.948 342.31 275.323L331.055 288.596C330.874 288.819 330.61 288.93 330.359 288.93Z" fill="#002868"/>
<path d="M232.316 404.571C232.108 404.571 231.899 404.501 231.732 404.348C231.342 404.028 231.301 403.444 231.621 403.068L320.439 298.307C320.759 297.917 321.343 297.875 321.719 298.195C322.108 298.515 322.15 299.1 321.83 299.475L233.012 404.237C232.831 404.459 232.567 404.571 232.316 404.571Z" fill="#002868"/>
<path d="M333.058 293.214C332.877 293.214 332.696 293.159 332.529 293.047C332.126 292.755 332.029 292.185 332.307 291.781L338.943 282.418C339.235 282.015 339.806 281.917 340.209 282.195C340.613 282.488 340.71 283.058 340.432 283.461L333.795 292.825C333.628 293.089 333.35 293.214 333.058 293.214Z" fill="#002868"/>
<path d="M252.379 407.047C252.198 407.047 252.018 406.992 251.851 406.88C251.447 406.588 251.35 406.018 251.628 405.614L317.156 313.165C317.448 312.762 318.019 312.664 318.422 312.942C318.826 313.235 318.923 313.805 318.645 314.209L253.117 406.658C252.95 406.908 252.671 407.047 252.379 407.047Z" fill="#002868"/>
<path d="M742.185 438.81C742.046 438.81 741.906 438.782 741.781 438.712L309.337 221.356C308.891 221.133 308.711 220.577 308.933 220.132C309.156 219.687 309.712 219.506 310.157 219.728L742.602 437.084C743.047 437.307 743.228 437.864 743.005 438.309C742.839 438.629 742.519 438.81 742.185 438.81Z" fill="#002868"/>
<path d="M725.63 441.091C725.491 441.091 725.351 441.063 725.212 440.994L310.242 225.822C309.797 225.585 309.616 225.043 309.852 224.597C310.089 224.152 310.631 223.971 311.077 224.208L726.061 439.38C726.506 439.616 726.687 440.159 726.451 440.604C726.284 440.91 725.964 441.091 725.63 441.091Z" fill="#002868"/>
<path d="M707.376 442.232C707.237 442.232 707.084 442.204 706.945 442.12L311.132 230.273C310.687 230.037 310.52 229.48 310.757 229.035C310.993 228.59 311.55 228.423 311.995 228.66L707.808 440.52C708.253 440.757 708.42 441.313 708.183 441.759C708.016 442.065 707.697 442.232 707.376 442.232Z" fill="#002868"/>
<path d="M684.545 442.233C684.392 442.233 684.239 442.191 684.1 442.121L312.05 234.977C311.605 234.726 311.452 234.184 311.702 233.739C311.953 233.294 312.495 233.14 312.94 233.391L685.004 440.535C685.45 440.786 685.603 441.328 685.352 441.773C685.185 442.066 684.865 442.233 684.545 442.233Z" fill="#002868"/>
<path d="M664.01 442.802C663.857 442.802 663.704 442.76 663.551 442.677L313.886 240.277C313.455 240.026 313.302 239.47 313.552 239.039C313.803 238.607 314.359 238.454 314.79 238.705L664.469 441.105C664.9 441.355 665.053 441.912 664.803 442.343C664.622 442.649 664.316 442.802 664.01 442.802Z" fill="#002868"/>
<path d="M640.039 444.514C639.872 444.514 639.706 444.472 639.566 444.375L314.861 244.66C314.43 244.395 314.304 243.839 314.569 243.407C314.833 242.976 315.389 242.851 315.821 243.115L640.512 442.844C640.944 443.109 641.069 443.665 640.805 444.096C640.638 444.361 640.346 444.514 640.039 444.514Z" fill="#002868"/>
<path d="M617.209 444.514C617.042 444.514 616.861 444.472 616.708 444.361L315.987 248.639C315.57 248.361 315.445 247.804 315.723 247.373C316.001 246.956 316.558 246.83 316.989 247.109L617.723 442.845C618.141 443.123 618.266 443.679 617.988 444.111C617.807 444.375 617.515 444.514 617.209 444.514Z" fill="#002868"/>
<path d="M592.68 445.084C592.499 445.084 592.318 445.029 592.165 444.917L318.004 254.037C317.587 253.745 317.489 253.188 317.781 252.771C318.074 252.353 318.63 252.256 319.048 252.548L593.195 443.429C593.612 443.721 593.71 444.277 593.417 444.695C593.25 444.959 592.958 445.084 592.68 445.084Z" fill="#002868"/>
<path d="M570.991 446.226C570.796 446.226 570.615 446.17 570.448 446.045L319.02 258.044C318.617 257.738 318.533 257.168 318.839 256.764C319.145 256.361 319.716 256.277 320.119 256.583L571.533 444.598C571.937 444.904 572.02 445.474 571.714 445.878C571.547 446.1 571.269 446.226 570.991 446.226Z" fill="#002868"/>
<path d="M550.442 446.225C550.247 446.225 550.038 446.156 549.871 446.03L320.036 262.607C319.646 262.287 319.577 261.717 319.897 261.327C320.217 260.937 320.787 260.868 321.177 261.188L551.026 444.611C551.416 444.931 551.485 445.502 551.165 445.891C550.984 446.114 550.72 446.225 550.442 446.225Z" fill="#002868"/>
<path d="M529.907 446.225C529.699 446.225 529.49 446.156 529.309 446.003L321.08 267.045C320.704 266.711 320.648 266.141 320.982 265.765C321.316 265.39 321.887 265.334 322.262 265.668L530.492 444.625C530.867 444.959 530.923 445.53 530.589 445.905C530.422 446.128 530.158 446.225 529.907 446.225Z" fill="#002868"/>
<path d="M503.083 446.796C502.861 446.796 502.624 446.712 502.457 446.545L323.402 273.654C323.041 273.306 323.027 272.722 323.374 272.36C323.722 271.998 324.307 271.984 324.668 272.332L503.723 445.224C504.085 445.572 504.099 446.156 503.751 446.518C503.556 446.712 503.32 446.796 503.083 446.796Z" fill="#002868"/>
<path d="M471.127 448.52C470.876 448.52 470.612 448.409 470.445 448.201L325.198 280.874C324.864 280.498 324.906 279.914 325.295 279.594C325.671 279.26 326.255 279.302 326.575 279.691L471.822 447.018C472.156 447.394 472.115 447.978 471.725 448.298C471.558 448.437 471.335 448.52 471.127 448.52Z" fill="#002868"/>
<path d="M449.451 449.662C449.172 449.662 448.908 449.536 448.727 449.3L327.229 288.749C326.923 288.345 327.006 287.775 327.41 287.469C327.813 287.163 328.384 287.246 328.69 287.65L450.174 448.187C450.48 448.59 450.397 449.161 449.993 449.467C449.826 449.592 449.632 449.662 449.451 449.662Z" fill="#002868"/>
<mask id="mask0" mask-type="alpha" maskUnits="userSpaceOnUse" x="343" y="0" width="165" height="320">
<path d="M343.489 0.771973H507.658V319.37L343.489 237.286V0.771973Z" fill="#C4C4C4"/>
</mask>
<g mask="url(#mask0)">
<path d="M429.747 116.246L388.01 11.9015L489.571 11.9015L448.529 116.246L429.747 116.246Z" fill="#04F7F7"/>
<path d="M421.924 319.452H361.424C360.737 319.452 360.185 318.9 360.185 318.213V25.4534C360.185 24.9006 360.547 24.4241 361.08 24.2525L378.598 18.9726C379.227 18.782 379.875 19.106 380.123 19.6969L423.086 127.373C423.144 127.526 423.182 127.678 423.182 127.831V318.194C423.182 318.9 422.61 319.452 421.924 319.452ZM362.682 316.974H420.685V128.079L378.216 21.6793L362.682 26.3683V316.974Z" fill="#002868"/>
<path d="M373.28 318.842C372.594 318.842 372.041 318.289 372.041 317.603V43.8088C372.041 43.1226 372.594 42.5698 373.28 42.5698C373.966 42.5698 374.519 43.1226 374.519 43.8088V317.603C374.538 318.27 373.966 318.842 373.28 318.842Z" fill="#002868"/>
<path d="M380.77 318.842C380.084 318.842 379.531 318.289 379.531 317.603V43.8088C379.531 43.1226 380.084 42.5698 380.77 42.5698C381.456 42.5698 382.009 43.1226 382.009 43.8088V317.603C382.009 318.27 381.456 318.842 380.77 318.842Z" fill="#002868"/>
<path d="M388.872 318.842C388.186 318.842 387.633 318.29 387.633 317.603V60.0112C387.633 59.325 388.186 58.7722 388.872 58.7722C389.558 58.7722 390.111 59.325 390.111 60.0112V317.584C390.111 318.271 389.558 318.842 388.872 318.842Z" fill="#002868"/>
<path d="M396.362 318.843C395.676 318.843 395.123 318.29 395.123 317.604V75.6035C395.123 74.9173 395.676 74.3645 396.362 74.3645C397.048 74.3645 397.601 74.9173 397.601 75.6035V317.585C397.601 318.271 397.048 318.843 396.362 318.843Z" fill="#002868"/>
<path d="M403.835 318.842C403.148 318.842 402.596 318.289 402.596 317.603V95.5598C402.596 94.8736 403.148 94.3208 403.835 94.3208C404.521 94.3208 405.074 94.8736 405.074 95.5598V317.584C405.093 318.27 404.521 318.842 403.835 318.842Z" fill="#002868"/>
<path d="M411.326 318.842C410.64 318.842 410.087 318.289 410.087 317.603V113.649C410.087 112.962 410.64 112.41 411.326 112.41C412.012 112.41 412.565 112.962 412.565 113.649V317.584C412.565 318.27 412.012 318.842 411.326 318.842Z" fill="#002868"/>
<path d="M498.015 319.452H438.144C437.458 319.452 436.905 318.899 436.905 318.213V127.849C436.905 127.697 436.943 127.544 437.001 127.392L479.64 19.6965C479.888 19.0866 480.536 18.7816 481.165 18.9722L498.377 24.2521C498.892 24.4046 499.254 24.9002 499.254 25.453V318.213C499.254 318.899 498.701 319.452 498.015 319.452ZM439.383 316.974H496.757V26.3679L481.527 21.6979L439.383 128.078V316.974Z" fill="#002868"/>
<path d="M486.789 319.452C486.103 319.452 485.55 318.899 485.55 318.213V43.8088C485.55 43.1226 486.103 42.5698 486.789 42.5698C487.475 42.5698 488.028 43.1226 488.028 43.8088V318.213C488.028 318.899 487.475 319.452 486.789 319.452Z" fill="#002868"/>
<path d="M479.298 319.452C478.611 319.452 478.059 318.899 478.059 318.213V43.8088C478.059 43.1226 478.611 42.5698 479.298 42.5698C479.984 42.5698 480.537 43.1226 480.537 43.8088V318.213C480.556 318.899 479.984 319.452 479.298 319.452Z" fill="#002868"/>
<path d="M471.196 319.452C470.51 319.452 469.957 318.9 469.957 318.213V60.0112C469.957 59.325 470.51 58.7722 471.196 58.7722C471.882 58.7722 472.435 59.325 472.435 60.0112V318.213C472.435 318.9 471.882 319.452 471.196 319.452Z" fill="#002868"/>
<path d="M463.706 319.453C463.02 319.453 462.467 318.9 462.467 318.214V75.6035C462.467 74.9173 463.02 74.3645 463.706 74.3645C464.392 74.3645 464.945 74.9173 464.945 75.6035V318.214C464.964 318.9 464.392 319.453 463.706 319.453Z" fill="#002868"/>
<path d="M456.234 319.452C455.548 319.452 454.995 318.899 454.995 318.213V95.5598C454.995 94.8736 455.548 94.3208 456.234 94.3208C456.92 94.3208 457.473 94.8736 457.473 95.5598V318.213C457.473 318.899 456.92 319.452 456.234 319.452Z" fill="#002868"/>
<path d="M448.743 319.452C448.057 319.452 447.504 318.899 447.504 318.213V113.649C447.504 112.962 448.057 112.41 448.743 112.41C449.429 112.41 449.982 112.962 449.982 113.649V318.213C449.982 318.899 449.429 319.452 448.743 319.452Z" fill="#002868"/>
<path d="M438.145 319.452H421.924C421.237 319.452 420.685 318.9 420.685 318.213V127.831L378.197 20.5737C378.045 20.1734 378.102 19.754 378.331 19.4109C378.56 19.0678 378.96 18.8582 379.36 18.8582H480.918C481.337 18.8582 481.718 19.0678 481.947 19.4109C482.176 19.754 482.233 20.1924 482.081 20.5737L439.384 128.078V318.213C439.384 318.9 438.831 319.452 438.145 319.452ZM423.182 316.974H436.906V127.85C436.906 127.697 436.944 127.545 437.001 127.392L479.088 21.3552H381.19L423.086 127.125C423.144 127.278 423.182 127.43 423.182 127.583V316.974Z" fill="#002868"/>
<path d="M471.196 44.4186H388.242C387.556 44.4186 387.003 43.8659 387.003 43.1796C387.003 42.4934 387.556 41.9407 388.242 41.9407H471.196C471.882 41.9407 472.435 42.4934 472.435 43.1796C472.435 43.8659 471.882 44.4186 471.196 44.4186Z" fill="#002868"/>
<path d="M468.7 51.9103H391.369C390.683 51.9103 390.13 51.3575 390.13 50.6713C390.13 49.9851 390.683 49.4324 391.369 49.4324H468.7C469.386 49.4324 469.939 49.9851 469.939 50.6713C469.939 51.3575 469.386 51.9103 468.7 51.9103Z" fill="#002868"/>
<path d="M465.574 59.401H394.495C393.809 59.401 393.256 58.8483 393.256 58.1621C393.256 57.4759 393.809 56.9231 394.495 56.9231H465.593C466.279 56.9231 466.832 57.4759 466.832 58.1621C466.832 58.8292 466.279 59.401 465.574 59.401Z" fill="#002868"/>
<path d="M461.837 66.873H397.601C396.915 66.873 396.362 66.3202 396.362 65.634C396.362 64.9478 396.915 64.395 397.601 64.395H461.837C462.524 64.395 463.076 64.9478 463.076 65.634C463.076 66.3202 462.524 66.873 461.837 66.873Z" fill="#002868"/>
<path d="M459.969 74.9928H400.727C400.041 74.9928 399.488 74.4401 399.488 73.7539C399.488 73.0677 400.041 72.5149 400.727 72.5149H459.969C460.655 72.5149 461.208 73.0677 461.208 73.7539C461.208 74.421 460.655 74.9928 459.969 74.9928Z" fill="#002868"/>
<path d="M456.234 82.4645H403.835C403.148 82.4645 402.596 81.9118 402.596 81.2255C402.596 80.5393 403.148 79.9866 403.835 79.9866H456.215C456.901 79.9866 457.454 80.5393 457.454 81.2255C457.454 81.9118 456.92 82.4645 456.234 82.4645Z" fill="#002868"/>
<path d="M453.108 89.956H406.961C406.274 89.956 405.722 89.4032 405.722 88.717C405.722 88.0308 406.274 87.478 406.961 87.478H453.108C453.794 87.478 454.347 88.0308 454.347 88.717C454.366 89.4032 453.794 89.956 453.108 89.956Z" fill="#002868"/>
<path d="M450.611 97.4474H409.458C408.772 97.4474 408.219 96.8947 408.219 96.2085C408.219 95.5223 408.772 94.9695 409.458 94.9695H450.611C451.297 94.9695 451.85 95.5223 451.85 96.2085C451.869 96.8756 451.297 97.4474 450.611 97.4474Z" fill="#002868"/>
<path d="M447.504 104.919H412.565C411.879 104.919 411.326 104.367 411.326 103.68C411.326 102.994 411.879 102.441 412.565 102.441H447.485C448.171 102.441 448.724 102.994 448.724 103.68C448.743 104.367 448.19 104.919 447.504 104.919Z" fill="#002868"/>
<path d="M444.377 112.41H415.69C415.004 112.41 414.451 111.857 414.451 111.171C414.451 110.484 415.004 109.932 415.69 109.932H444.377C445.063 109.932 445.616 110.484 445.616 111.171C445.616 111.857 445.063 112.41 444.377 112.41Z" fill="#002868"/>
<path d="M441.251 120.511H418.187C417.501 120.511 416.948 119.958 416.948 119.272C416.948 118.585 417.501 118.033 418.187 118.033H441.27C441.956 118.033 442.509 118.585 442.509 119.272C442.509 119.958 441.956 120.511 441.251 120.511Z" fill="#002868"/>
<path d="M438.145 128.002H421.924C421.237 128.002 420.685 127.45 420.685 126.763C420.685 126.077 421.237 125.524 421.924 125.524H438.145C438.831 125.524 439.384 126.077 439.384 126.763C439.384 127.431 438.831 128.002 438.145 128.002Z" fill="#002868"/>
<path d="M438.145 135.474H421.924C421.237 135.474 420.685 134.921 420.685 134.235C420.685 133.549 421.237 132.996 421.924 132.996H438.145C438.831 132.996 439.384 133.549 439.384 134.235C439.384 134.921 438.831 135.474 438.145 135.474Z" fill="#002868"/>
<path d="M438.145 142.965H421.924C421.237 142.965 420.685 142.412 420.685 141.726C420.685 141.04 421.237 140.487 421.924 140.487H438.145C438.831 140.487 439.384 141.04 439.384 141.726C439.384 142.412 438.831 142.965 438.145 142.965Z" fill="#002868"/>
<path d="M438.145 150.456H421.924C421.237 150.456 420.685 149.904 420.685 149.217C420.685 148.531 421.237 147.979 421.924 147.979H438.145C438.831 147.979 439.384 148.531 439.384 149.217C439.384 149.885 438.831 150.456 438.145 150.456Z" fill="#002868"/>
<path d="M438.145 157.929H421.924C421.237 157.929 420.685 157.376 420.685 156.69C420.685 156.004 421.237 155.451 421.924 155.451H438.145C438.831 155.451 439.384 156.004 439.384 156.69C439.384 157.376 438.831 157.929 438.145 157.929Z" fill="#002868"/>
<path d="M438.145 166.048H421.924C421.237 166.048 420.685 165.495 420.685 164.809C420.685 164.123 421.237 163.57 421.924 163.57H438.145C438.831 163.57 439.384 164.123 439.384 164.809C439.384 165.495 438.831 166.048 438.145 166.048Z" fill="#002868"/>
<path d="M438.145 173.52H421.924C421.237 173.52 420.685 172.967 420.685 172.281C420.685 171.595 421.237 171.042 421.924 171.042H438.145C438.831 171.042 439.384 171.595 439.384 172.281C439.384 172.967 438.831 173.52 438.145 173.52Z" fill="#002868"/>
<path d="M438.145 181.011H421.924C421.237 181.011 420.685 180.459 420.685 179.772C420.685 179.086 421.237 178.533 421.924 178.533H438.145C438.831 178.533 439.384 179.086 439.384 179.772C439.384 180.459 438.831 181.011 438.145 181.011Z" fill="#002868"/>
<path d="M438.145 188.483H421.924C421.237 188.483 420.685 187.93 420.685 187.244C420.685 186.558 421.237 186.005 421.924 186.005H438.145C438.831 186.005 439.384 186.558 439.384 187.244C439.384 187.93 438.831 188.483 438.145 188.483Z" fill="#002868"/>
<path d="M438.145 195.975H421.924C421.237 195.975 420.685 195.422 420.685 194.736C420.685 194.049 421.237 193.497 421.924 193.497H438.145C438.831 193.497 439.384 194.049 439.384 194.736C439.384 195.422 438.831 195.975 438.145 195.975Z" fill="#002868"/>
<path d="M437.516 203.464H421.924C421.237 203.464 420.685 202.911 420.685 202.225C420.685 201.539 421.237 200.986 421.924 200.986H437.516C438.202 200.986 438.755 201.539 438.755 202.225C438.755 202.911 438.202 203.464 437.516 203.464Z" fill="#002868"/>
<path d="M437.516 211.566H421.924C421.237 211.566 420.685 211.013 420.685 210.327C420.685 209.641 421.237 209.088 421.924 209.088H437.516C438.202 209.088 438.755 209.641 438.755 210.327C438.755 211.013 438.202 211.566 437.516 211.566Z" fill="#002868"/>
<path d="M437.516 219.057H421.924C421.237 219.057 420.685 218.504 420.685 217.818C420.685 217.132 421.237 216.579 421.924 216.579H437.516C438.202 216.579 438.755 217.132 438.755 217.818C438.774 218.485 438.202 219.057 437.516 219.057Z" fill="#002868"/>
<path d="M437.516 226.529H421.924C421.237 226.529 420.685 225.977 420.685 225.29C420.685 224.604 421.237 224.052 421.924 224.052H437.516C438.202 224.052 438.755 224.604 438.755 225.29C438.755 225.977 438.202 226.529 437.516 226.529Z" fill="#002868"/>
<path d="M437.516 234.02H421.924C421.237 234.02 420.685 233.467 420.685 232.781C420.685 232.095 421.237 231.542 421.924 231.542H437.516C438.202 231.542 438.755 232.095 438.755 232.781C438.774 233.467 438.202 234.02 437.516 234.02Z" fill="#002868"/>
<path d="M437.516 241.511H421.924C421.237 241.511 420.685 240.958 420.685 240.272C420.685 239.586 421.237 239.033 421.924 239.033H437.516C438.202 239.033 438.755 239.586 438.755 240.272C438.755 240.958 438.202 241.511 437.516 241.511Z" fill="#002868"/>
<path d="M437.516 248.984H421.924C421.237 248.984 420.685 248.431 420.685 247.745C420.685 247.059 421.237 246.506 421.924 246.506H437.516C438.202 246.506 438.755 247.059 438.755 247.745C438.755 248.431 438.202 248.984 437.516 248.984Z" fill="#002868"/>
<path d="M437.516 257.103H421.924C421.237 257.103 420.685 256.55 420.685 255.864C420.685 255.178 421.237 254.625 421.924 254.625H437.516C438.202 254.625 438.755 255.178 438.755 255.864C438.774 256.531 438.202 257.103 437.516 257.103Z" fill="#002868"/>
<path d="M437.516 264.575H421.924C421.237 264.575 420.685 264.022 420.685 263.336C420.685 262.65 421.237 262.097 421.924 262.097H437.516C438.202 262.097 438.755 262.65 438.755 263.336C438.774 264.022 438.202 264.575 437.516 264.575Z" fill="#002868"/>
<path d="M437.516 272.067H421.924C421.237 272.067 420.685 271.514 420.685 270.828C420.685 270.141 421.237 269.589 421.924 269.589H437.516C438.202 269.589 438.755 270.141 438.755 270.828C438.774 271.495 438.202 272.067 437.516 272.067Z" fill="#002868"/>
<path d="M437.516 279.538H421.924C421.237 279.538 420.685 278.986 420.685 278.3C420.685 277.613 421.237 277.061 421.924 277.061H437.516C438.202 277.061 438.755 277.613 438.755 278.3C438.774 278.986 438.202 279.538 437.516 279.538Z" fill="#002868"/>
<path d="M437.516 287.029H421.924C421.237 287.029 420.685 286.476 420.685 285.79C420.685 285.104 421.237 284.551 421.924 284.551H437.516C438.202 284.551 438.755 285.104 438.755 285.79C438.774 286.476 438.202 287.029 437.516 287.029Z" fill="#002868"/>
<path d="M437.516 294.519H421.924C421.237 294.519 420.685 293.967 420.685 293.28C420.685 292.594 421.237 292.042 421.924 292.042H437.516C438.202 292.042 438.755 292.594 438.755 293.28C438.774 293.948 438.202 294.519 437.516 294.519Z" fill="#002868"/>
<path d="M437.516 302.621H421.924C421.237 302.621 420.685 302.069 420.685 301.383C420.685 300.696 421.237 300.144 421.924 300.144H437.516C438.202 300.144 438.755 300.696 438.755 301.383C438.774 302.069 438.202 302.621 437.516 302.621Z" fill="#002868"/>
<path d="M437.516 310.112H421.924C421.237 310.112 420.685 309.559 420.685 308.873C420.685 308.187 421.237 307.634 421.924 307.634H437.516C438.202 307.634 438.755 308.187 438.755 308.873C438.774 309.54 438.202 310.112 437.516 310.112Z" fill="#002868"/>
</g>
</svg>
